/* XPM */
static char *bigger[] = {
/* columns rows colors chars-per-pixel */
"64 64 10 1 ",
"  c #4B692F",
". c #504B45",
"X c #605B53",
"o c #79766C",
"O c #7F7D72",
"+ c #AC3232",
"@ c #66BE4A",
"# c #868579",
"$ c #EDFF95",
"% c white",
/* pixels */
"@@@@@@@@@@@@@@@@@@@@@@@@@@@@@@@@@@@@@@@@@@@@@@@@@@@@@@@@@@@@@@@@",
"@@@@@@@@@@@@@@@@@@@@@@@@@@@@@@@@@@@@@@@@@@@@@@@@@@@@@@@@@@@@@@@@",
"@@@@@@@@@@@@@@@@@@@@@@@@@@@@@@@@@@@@@@@@@@@@@@@@@@@@@@@@@@@@@@@@",
"@@@@@@@@@@@@@@@@@@@@@@@@@@@@@@@@@@@@@@@@@@@@@@@@@@@@@@@@@@@@@@@@",
"@@@@@@@@@@@@@@@@@@@@@@@@@@@@@@@@@@@@@@@@@@@@@@@@@@@@@@@@@@@@@@@@",
"@@@@@@@@@@@@@@@@@@@@@@@@@@@@@@@@@@@@@@@@@@@@@@@@@@@@@@@@@@@@@@@@",
"@@@@@@@@@@@@@@@@@@@@@@@@@@@@@@@@@@@@@@@@@@@@@@@@@@@@@@@@@@@@@@@@",
"@@@@@@@@@@@@@@@@@@@@@@@@@@@@@@@@@@@@@@@@@@@@@@@@@@@@@@@@@@@@@@@@",
"@@@@@@@@@@@@@@@@@@@@@@@@@@@@@@@@@@@@@@@@@@@@@@@@@@@@@@@@@@@@@@@@",
"@@@@@@@@@@@@@@@@@@@@@@@@@@@@@@@@@@@@@@@@@@@@@@@@@@@@@@@@@@@@@@@@",
"@@@@@@@@@@@@@@@@@@@@@@@@@@@@@@@@@@@@@@@@@@@@@@@@@@@@@@@@@@@@@@@@",
"@@@@@@@@@@@@@@@@@@@@@@@@@@@@@@@@@@@@@@@@@@@@@@@@@@@@@@@@@@@@@@@@",
"@@@@@@@@@@@@@@@@@@@@@@@@@@@@@@@@@@@@@@@@@@@@@@@@@@@@@@@@@@@@@@@@",
"@@@@@@@@@@@@@@@@@@@@@@@@@@@@@@@@@@@@@@@@@@@@@@@@@@@@@@@@@@@@@@@@",
"@@@@@@@@@@@@@@@@@@@@@@@@@@@@@@@@@@@@@@@@@@@@@@@@@@@@@@@@@@@@@@@@",
"@@@@@@@@@@@@@@@@@@@@@@@@@@@@@@@@@@@@@@@@@@@@@@@@@@@@@@@@@@@@@@@@",
"@@@@@@@@@@@@@@@@@@@@@@@@@@XXXXXXXXXXXX@@@@@@@@@@@@@@@@@@@@@@@@@@",
"@@@@@@@@@@@@@@@@@@@@@@@@@@XXXXXXXXXXXX@@@@@@@@@@@@@@@@@@@@@@@@@@",
"@@@@@@@@@@@@@@@@@@@@@@XXXXXX########XXXXXX@@@@@@@@@@@@@@@@@@@@@@",
"@@@@@@@@@@@@@@@@@@@@@@XXXXXX########XXXXXX@@@@@@@@@@@@@@@@@@@@@@",
"@@@@@@@@@@@@@@@@@@@@XXXXOO##############XXXX@@@@@@@@@@@@@@@@@@@@",
"@@@@@@@@@@@@@@@@@@@@XXXXOO##############XXXX@@@@@@@@@@@@@@@@@@@@",
"@@@@@@@@@@@@@@@@@@XXXXOOOO################XXXX@@@@@@@@@@@@@@@@@@",
"@@@@@@@@@@@@@@@@@@XXXXOOOO################XXXX@@@@@@@@@@@@@@@@@@",
"@@@@@@@@@@@@@@@@@@XXOOOOOO##################XX@@@@@@@@@@@@@@@@@@",
"@@@@@@@@@@@@@@@@@@XXOOOOOO##################XX@@@@@@@@@@@@@@@@@@",
"@@@@@@@@@@@@@@@@XXXXOOOOOO##################XXXX@@@@@@@@@@@@@@@@",
"@@@@@@@@@@@@@@@@XXXXOOOOOO##################XXXX@@@@@@@@@@@@@@@@",
"@@@@@@@@@@@@@@@@XXOOOOOOOO####################XX@@@@@@@@@@@@@@@@",
"@@@@@@@@@@@@@@@@XXOOOOOOOO####################XX@@@@@@@@@@@@@@@@",
"@@@@@@@@@@@@@@@@XXooOOOOOO####################XX@@@@@@@@@@@@@@@@",
"@@@@@@@@@@@@@@@@XXooOOOOOO####################XX@@@@@@@@@@@@@@@@",
"@@@@@@@@@@@@@@@@XXooOOXXOOXX##XX##XXXX##XX####XX@@@@@@@@@@@@@@@@",
"@@@@@@@@@@@@@@@@XXooOOXXOOXX##XX##XXXX##XX####XX@@@@@@@@@@@@@@@@",
"@@@@@@@@@@@@@@@@XXooXXOOOOXX##XX####XX##XXXX##XX@@++++@@@@@@@@@@",
"@@@@@@@@@@@@@@@@XXooXXOOOOXX##XX####XX##XXXX##XX@@++++@@@@@@@@@@",
"@@@@@@@@@@@@@@%%XXooOOXXOOXX##XX##XX####XX####XX++$$$$++@@@@@@@@",
"@@@@@@@@@@@@@@%%XXooOOXXOOXX##XX##XX####XX####XX++$$$$++@@@@@@@@",
"@@@@@@@@@@@@%%$$XXooXXOOOOOOXX####XXXX####XX##XX++$$$$++@@@@@@@@",
"@@@@@@@@@@@@%%$$XXooXXOOOOOOXX####XXXX####XX##XX++$$$$++@@@@@@@@",
"@@@@@@@@@@@@@@%%XXooOOOOOOOOOO################XX@@++++@@@@@@@@@@",
"@@@@@@@@@@@@@@%%XXooOOOOOOOOOO################XX@@++++@@@@@@@@@@",
"@@@@@@@@@@%%@@  XXooOOOOOOOOOOOO##############XX@@  @@@@@@@@@@@@",
"@@@@@@@@@@%%@@  XXooOOOOOOOOOOOO##############XX@@  @@@@@@@@@@@@",
"@@@@@@@@%%$$%%@@XXooooOOXXXXOOXXOOXXXX########XX  @@@@@@@@@@@@@@",
"@@@@@@@@%%$$%%@@XXooooOOXXXXOOXXOOXXXX########XX  @@@@@@@@@@@@@@",
"@@@@@@@@@@%%    XXooooooooOOOOOOOOOO####XX####XX  @@@@@@@@@@@@@@",
"@@@@@@@@@@%%    XXooooooooOOOOOOOOOO####XX####XX  @@@@@@@@@@@@@@",
"@@@@@@@@@@@@....XXooooooooooOOOOOOOOOOOO######XX....@@@@@@@@@@@@",
"@@@@@@@@@@@@....XXooooooooooOOOOOOOOOOOO######XX....@@@@@@@@@@@@",
"@@@@@@@@@@......XXooooooooooooooOOOOOOOOOOOO##XX......@@@@@@@@@@",
"@@@@@@@@@@......XXooooooooooooooOOOOOOOOOOOO##XX......@@@@@@@@@@",
"@@@@@@@@@@......XXXXXXXXXXXXXXXXXXXXXXXXXXXXXXXX......@@@@@@@@@@",
"@@@@@@@@@@......XXXXXXXXXXXXXXXXXXXXXXXXXXXXXXXX......@@@@@@@@@@",
"@@@@@@@@@@@@........................................@@@@@@@@@@@@",
"@@@@@@@@@@@@........................................@@@@@@@@@@@@",
"@@@@@@@@@@@@@@@@@@@@@@@@@@@@@@@@@@@@@@@@@@@@@@@@@@@@@@@@@@@@@@@@",
"@@@@@@@@@@@@@@@@@@@@@@@@@@@@@@@@@@@@@@@@@@@@@@@@@@@@@@@@@@@@@@@@",
"@@@@@@@@@@@@@@@@@@@@@@@@@@@@@@@@@@@@@@@@@@@@@@@@@@@@@@@@@@@@@@@@",
"@@@@@@@@@@@@@@@@@@@@@@@@@@@@@@@@@@@@@@@@@@@@@@@@@@@@@@@@@@@@@@@@",
"@@@@@@@@@@@@@@@@@@@@@@@@@@@@@@@@@@@@@@@@@@@@@@@@@@@@@@@@@@@@@@@@",
"@@@@@@@@@@@@@@@@@@@@@@@@@@@@@@@@@@@@@@@@@@@@@@@@@@@@@@@@@@@@@@@@",
"@@@@@@@@@@@@@@@@@@@@@@@@@@@@@@@@@@@@@@@@@@@@@@@@@@@@@@@@@@@@@@@@",
"@@@@@@@@@@@@@@@@@@@@@@@@@@@@@@@@@@@@@@@@@@@@@@@@@@@@@@@@@@@@@@@@"
};
