/* XPM */
static char *suzy[] = {
/* columns rows colors chars-per-pixel */
"64 64 17 1 ",
"  c black",
". c #BE2525",
"X c #CB2323",
"o c #D12121",
"O c #D82020",
"+ c #FF6978",
"@ c #66BE4A",
"# c #D2DB9A",
"$ c #D3DBA5",
"% c #DFEBA0",
"& c #E5F1A6",
"* c #E9F5AA",
"= c #ECF8AC",
"- c #F4FFB3",
"; c #F5FFBF",
": c #F7FFCC",
"> c #F9FFD9",
/* pixels */
"@@@@@@@@@@@@@@@@@@@@@@@@@@@@@@@@@@@@@@@@@@@@@@@@@@@@@@@@@@@@@@@@",
"@@@@@@@@@@@@@@@@@@@@@@@@@@@@@@@@@@@@@@@@@@@@@@@@@@@@@@@@@@@@@@@@",
"@@@@@@@@@@@@@@@@@@@@@@@@@@@@@@@@@@@@@@@@@@@@@@@@@@@@@@@@@@@@@@@@",
"@@@@@@@@@@@@@@@@@@@@@@@@@@@@@@@@@@@@@@@@@@@@@@@@@@@@@@@@@@@@@@@@",
"@@@@@@@@@@@@@@@@@@@@@@@@@@@@@@@@@@@@@@@@@@@@@@@@@@@@@@@@@@@@@@@@",
"@@@@@@@@@@@@@@@@@@@@@@@@@@@@@@@@@@@@@@@@@@@@@@@@@@@@@@@@@@@@@@@@",
"@@@@@@@@@@@@@@@@@@                            @@@@@@@@@@@@@@@@@@",
"@@@@@@@@@@@@@@@@@@                            @@@@@@@@@@@@@@@@@@",
"@@@@@@@@@@@@@@@@  ;;;;;;;;%%::::::::::%%::>>>>  @@@@@@@@@@@@@@@@",
"@@@@@@@@@@@@@@@@  ;;;;;;;;%%::::::::::%%::>>>>  @@@@@@@@@@@@@@@@",
"@@@@@@@@@@@@@@  ;;;;;;;;;;;;%%;;%%%%%%::::::>>>>  @@@@@@@@@@@@@@",
"@@@@@@@@@@@@@@  ;;;;;;;;;;;;%%;;%%%%%%::::::>>>>  @@@@@@@@@@@@@@",
"@@@@@@@@@@@@  %%--;;;;;;;;;;;;%%;;;;;;;;;;;;::>>>>  @@@@@@@@@@@@",
"@@@@@@@@@@@@  %%--;;;;;;;;;;;;%%;;;;;;;;;;;;::>>>>  @@@@@@@@@@@@",
"@@@@@@@@@@@@  %%------------%%------------;;;;::>>  @@@@@@@@@@@@",
"@@@@@@@@@@@@  %%------------%%------------;;;;::>>  @@@@@@@@@@@@",
"@@@@@@@@@@@@  %%------------%%--------------;;;;::  @@@@@@@@@@@@",
"@@@@@@@@@@@@  %%------------%%--------------;;;;::  @@@@@@@@@@@@",
"@@@@@@@@@@@@  %%------    %%----------    ----;;::  @@@@@@@@@@@@",
"@@@@@@@@@@@@  %%------    %%----------    ----;;::  @@@@@@@@@@@@",
"@@@@@@@@@@@@  %%------    ------------    ----;;::  @@@@@@@@@@@@",
"@@@@@@@@@@@@  %%------    ------------    ----;;::  @@@@@@@@@@@@",
"@@@@@@@@@@@@  %%------    ------------    ----;;::  @@@@@@@@@@@@",
"@@@@@@@@@@@@  %%------    ------------    ----;;::  @@@@@@@@@@@@",
"@@@@@@@@@@@@  %%------------------------------;;::  @@@@@@@@@@@@",
"@@@@@@@@@@@@  %%------------------------------;;::  @@@@@@@@@@@@",
"@@@@@@@@@@@@  %%------------------------------;;::  @@@@@@@@@@@@",
"@@@@@@@@@@@@  %%------------------------------;;::  @@@@@@@@@@@@",
"@@@@@@@@@@@@  %%----++++----------------++++--;;::  @@@@@@@@@@@@",
"@@@@@@@@@@@@  %%----++++----------------++++--;;::  @@@@@@@@@@@@",
"@@@@@@@@@@@@  %%------------------------------;;;;  @@@@@@@@@@@@",
"@@@@@@@@@@@@  %%------------------------------;;;;  @@@@@@@@@@@@",
"@@@@@@@@@@@@@@  %%------------------------------  @@@@@@@@@@@@@@",
"@@@@@@@@@@@@@@  %%------------------------------  @@@@@@@@@@@@@@",
"@@@@@@@@@@@@@@@@  ----------------------------  @@@@@@@@@@@@@@@@",
"@@@@@@@@@@@@@@@@  ----------------------------  @@@@@@@@@@@@@@@@",
"@@@@@@@@@@@@@@@@  ----  **--  --==  **--  **--  @@@@@@@@@@@@@@@@",
"@@@@@@@@@@@@@@@@  ----  **--  --==  **--  **--  @@@@@@@@@@@@@@@@",
"@@@@@@@@@@@@@@@@  &&--  --&&  **--  &&--  &&--  @@@@@@@@@@@@@@@@",
"@@@@@@@@@@@@@@@@  &&--  --&&  **--  &&--  &&--  @@@@@@@@@@@@@@@@",
"@@@@@@@@@@@@@@@@  %%&&  &&%%  --**  --&&  %%&&  @@@@@@@@@@@@@@@@",
"@@@@@@@@@@@@@@@@  %%&&  &&%%  --**  --&&  %%&&  @@@@@@@@@@@@@@@@",
"@@@@@@@@@@@@@@@@@@                            @@@@@@@@@@@@@@@@@@",
"@@@@@@@@@@@@@@@@@@                            @@@@@@@@@@@@@@@@@@",
"@@@@@@@@@@@@@@@@@@@@    OOOOOOOOOOOOOOOO    @@@@@@@@@@@@@@@@@@@@",
"@@@@@@@@@@@@@@@@@@@@    OOOOOOOOOOOOOOOO    @@@@@@@@@@@@@@@@@@@@",
"@@@@@@@@@@@@@@@@@@  --  ooOOOOOOOOOOOOOO  ##  @@@@@@@@@@@@@@@@@@",
"@@@@@@@@@@@@@@@@@@  --  ooOOOOOOOOOOOOOO  ##  @@@@@@@@@@@@@@@@@@",
"@@@@@@@@@@@@@@@@  --  ..XXooooOOOOOOOOOOOO  ##  @@@@@@@@@@@@@@@@",
"@@@@@@@@@@@@@@@@  --  ..XXooooOOOOOOOOOOOO  ##  @@@@@@@@@@@@@@@@",
"@@@@@@@@@@@@@@  ----  ....XXXXooOOOOOOOOOO    $$  @@@@@@@@@@@@@@",
"@@@@@@@@@@@@@@  ----  ....XXXXooOOOOOOOOOO    $$  @@@@@@@@@@@@@@",
"@@@@@@@@@@@@@@  ----  ........XXooooooOOOOOO      @@@@@@@@@@@@@@",
"@@@@@@@@@@@@@@  ----  ........XXooooooOOOOOO      @@@@@@@@@@@@@@",
"@@@@@@@@@@@@@@@@    ............XXXXXXoooooo  @@@@@@@@@@@@@@@@@@",
"@@@@@@@@@@@@@@@@    ............XXXXXXoooooo  @@@@@@@@@@@@@@@@@@",
"@@@@@@@@@@@@@@@@@@  ....    ........XXXXXXXX  @@@@@@@@@@@@@@@@@@",
"@@@@@@@@@@@@@@@@@@  ....    ........XXXXXXXX  @@@@@@@@@@@@@@@@@@",
"@@@@@@@@@@@@@@@@@@      ----                  @@@@@@@@@@@@@@@@@@",
"@@@@@@@@@@@@@@@@@@      ----                  @@@@@@@@@@@@@@@@@@",
"@@@@@@@@@@@@@@@@@@@@@@  ----  @@@@  ####  @@@@@@@@@@@@@@@@@@@@@@",
"@@@@@@@@@@@@@@@@@@@@@@  ----  @@@@  ####  @@@@@@@@@@@@@@@@@@@@@@",
"@@@@@@@@@@@@@@@@@@@@@@  ----  @@@@  ####  @@@@@@@@@@@@@@@@@@@@@@",
"@@@@@@@@@@@@@@@@@@@@@@  ----  @@@@  ####  @@@@@@@@@@@@@@@@@@@@@@"
};
