/* XPM */
static char *wall[] = {
/* columns rows colors chars-per-pixel */
"64 64 3 1 ",
"  c #605B53",
". c #6B665D",
"X c #868579",
/* pixels */
"                                                                ",
"                                                                ",
"  XXXXXXXXXXXXXXXXXXXXXXXXXXXXXXXXXXXXXXXXXXXXXXXXXXXXXXXXXXXX  ",
"  XXXXXXXXXXXXXXXXXXXXXXXXXXXXXXXXXXXXXXXXXXXXXXXXXXXXXXXXXXXX  ",
"  XX                                                        XX  ",
"  XX                                                        XX  ",
"  XX  ....................................................  XX  ",
"  XX  ....................................................  XX  ",
"  XX  ..XXXXXXXXXX............................XXXXXXXXXX..  XX  ",
"  XX  ..XXXXXXXXXX............................XXXXXXXXXX..  XX  ",
"  XX  ..XXXXXX................XXXX................XXXXXX..  XX  ",
"  XX  ..XXXXXX................XXXX................XXXXXX..  XX  ",
"  XX  ..XXXX................XXXXXXXX................XXXX..  XX  ",
"  XX  ..XXXX................XXXXXXXX................XXXX..  XX  ",
"  XX  ..XX..................XXXXXXXX..................XX..  XX  ",
"  XX  ..XX..................XXXXXXXX..................XX..  XX  ",
"  XX  ..XX....................XXXX....................XX..  XX  ",
"  XX  ..XX....................XXXX....................XX..  XX  ",
"  XX  ........................XXXX........................  XX  ",
"  XX  ........................XXXX........................  XX  ",
"  XX  ................XXXX....XXXX....XXXX................  XX  ",
"  XX  ................XXXX....XXXX....XXXX................  XX  ",
"  XX  ................XXXXXXXXXXXXXXXXXXXX................  XX  ",
"  XX  ................XXXXXXXXXXXXXXXXXXXX................  XX  ",
"  XX  ..............XX..XXXX..XXXX..XXXX..XX..............  XX  ",
"  XX  ..............XX..XXXX..XXXX..XXXX..XX..............  XX  ",
"  XX  ............XXXX........XXXX........XXXX............  XX  ",
"  XX  ............XXXX........XXXX........XXXX............  XX  ",
"  XX  ..........XXXXXX......XXXXXXXX......XXXXXX..........  XX  ",
"  XX  ..........XXXXXX......XXXXXXXX......XXXXXX..........  XX  ",
"  XX  ......XXXXXX..XXXXXXXXXXXXXXXXXXXXXXXX..XXXXXX......  XX  ",
"  XX  ......XXXXXX..XXXXXXXXXXXXXXXXXXXXXXXX..XXXXXX......  XX  ",
"  XX  ......XXXXXX..XXXXXXXXXXXXXXXXXXXXXXXX..XXXXXX......  XX  ",
"  XX  ......XXXXXX..XXXXXXXXXXXXXXXXXXXXXXXX..XXXXXX......  XX  ",
"  XX  ..........XXXXXX......XXXXXXXX......XXXXXX..........  XX  ",
"  XX  ..........XXXXXX......XXXXXXXX......XXXXXX..........  XX  ",
"  XX  ............XXXX........XXXX........XXXX............  XX  ",
"  XX  ............XXXX........XXXX........XXXX............  XX  ",
"  XX  ..............XX..XXXX..XXXX..XXXX..XX..............  XX  ",
"  XX  ..............XX..XXXX..XXXX..XXXX..XX..............  XX  ",
"  XX  ................XXXXXXXXXXXXXXXXXXXX................  XX  ",
"  XX  ................XXXXXXXXXXXXXXXXXXXX................  XX  ",
"  XX  ................XXXX....XXXX....XXXX................  XX  ",
"  XX  ................XXXX....XXXX....XXXX................  XX  ",
"  XX  ........................XXXX........................  XX  ",
"  XX  ........................XXXX........................  XX  ",
"  XX  ..XX....................XXXX....................XX..  XX  ",
"  XX  ..XX....................XXXX....................XX..  XX  ",
"  XX  ..XX..................XXXXXXXX..................XX..  XX  ",
"  XX  ..XX..................XXXXXXXX..................XX..  XX  ",
"  XX  ..XXXX................XXXXXXXX................XXXX..  XX  ",
"  XX  ..XXXX................XXXXXXXX................XXXX..  XX  ",
"  XX  ..XXXXXX................XXXX................XXXXXX..  XX  ",
"  XX  ..XXXXXX................XXXX................XXXXXX..  XX  ",
"  XX  ..XXXXXXXXXX............................XXXXXXXXXX..  XX  ",
"  XX  ..XXXXXXXXXX............................XXXXXXXXXX..  XX  ",
"  XX  ....................................................  XX  ",
"  XX  ....................................................  XX  ",
"  XX                                                        XX  ",
"  XX                                                        XX  ",
"  XXXXXXXXXXXXXXXXXXXXXXXXXXXXXXXXXXXXXXXXXXXXXXXXXXXXXXXXXXXX  ",
"  XXXXXXXXXXXXXXXXXXXXXXXXXXXXXXXXXXXXXXXXXXXXXXXXXXXXXXXXXXXX  ",
"                                                                ",
"                                                                "
};
